<?xml version="1.0" encoding="utf-8"?>
<!-- Generator: Adobe Illustrator 26.0.3, SVG Export Plug-In . SVG Version: 6.00 Build 0)  -->
<svg version="1.0" id="katman_1" xmlns="http://www.w3.org/2000/svg" xmlns:xlink="http://www.w3.org/1999/xlink" x="0px" y="0px"
	 viewBox="0 0 600 450" style="enable-background:new 0 0 600 450;" xml:space="preserve">
<style type="text/css">
	.st0{fill:#922439;}
	.st1{fill:#B8AB85;}
	.st2{fill:#8A7334;}
</style>
<path class="st0" d="M203.5,238.1c-3.6,2.5-7.8,3.7-13,3.8c-5.9,0.2-11.3-1.8-15-5.5c-3.5-3.4-5.2-8-5.2-13.2
	c0.1-5.4,2.1-10.3,5.8-13.9c3.6-3.5,8.6-5.4,14.1-5.3c4.1,0.1,6.7,0.8,10.2,2.8l1.7,1v-7.2l-0.7-0.3c-4-1.7-6.7-2-11.3-2.1
	c-7.9-0.1-15.1,2.7-20.2,7.8c-4.6,4.5-7.1,10.7-7,17.3c0,6.8,2.7,13.1,7.5,17.6c5.2,4.9,12.4,7.4,20.3,7.1l0.6,0
	c4.1-0.1,6.8-0.2,10.8-1.7l0.5-0.2l4.1-10.2L203.5,238.1z"/>
<path class="st0" d="M243,219.6c-3.1-3.2-7.3-5.1-11.8-5.2l0,0c-4.4-0.1-8.8,1.7-12,4.8c-3.2,3.1-4.9,7.2-4.9,11.6
	c0,9,7.3,16.4,16.4,16.5c4.5,0.1,8.8-1.6,11.9-4.7c3.1-3,4.9-7.1,5-11.4C247.6,226.9,246,222.8,243,219.6z M230.9,242
	c-5.4,0-9.7-4.8-9.7-10.8c0-3.2,1.2-6.5,3.4-8.6c1.8-1.7,4-2.6,6.4-2.5c5.3,0.3,9.7,5.2,9.7,10.9v0.3
	C240.5,237.2,236.2,242,230.9,242z"/>
<path class="st0" d="M325.8,240c-1.8,1.3-5.2,2.3-8.7,2.4c-3,0.1-5.8-1.1-8-3.2c-2.2-2.2-3.3-5-3.2-8.2c0-6.3,4.7-11.1,11-11.2
	c2.8-0.1,5.7,0.8,7.6,2.2l1.8,1.4v-7.2l-0.7-0.3c-3.1-1.3-5.4-1.3-8.4-1.4h-0.3c-5.1-0.1-9.8,1.6-13.1,5c-3,3-4.6,7-4.6,11.3
	c0,0.1,0,0.2,0,0.4c0.1,4.4,1.8,8.5,4.9,11.5c3.4,3.2,8.1,4.8,13.2,4.6l1,0c2.8-0.1,5-0.2,8-1.4l0.2-0.1l0.4-0.1l1.3-7.3L325.8,240z
	"/>
<path class="st0" d="M367,219.6c-3.1-3.3-7.3-5.1-11.8-5.2c-4.4-0.1-8.8,1.7-12,4.8c-3.2,3.1-4.9,7.2-4.9,11.6
	c0,9,7.3,16.4,16.4,16.5c4.5,0.1,8.8-1.6,11.9-4.7c3.1-3,4.9-7.1,4.9-11.4c0-0.1,0-0.2,0-0.4C371.5,226.7,369.9,222.7,367,219.6z
	 M354.9,242c-5.4,0-9.7-4.8-9.7-10.8c-0.1-3.2,1.2-6.5,3.4-8.6c1.8-1.7,4-2.6,6.4-2.5c5.5,0.3,9.7,5.1,9.7,10.9v0.4
	C364.5,237.2,360.2,242,354.9,242z"/>
<path class="st0" d="M515.7,246.9l-0.9-1.6c-0.4-0.7-0.5-1.1-0.7-1.8c-0.2-0.7-0.3-1.2-0.3-2v-16.1c0-7.2-4.1-10.7-12.7-11l0,0
	c-3.2,0-6.4,0.2-9.6,2.1l-0.5,0.3v6.7l1.9-1.7c1.7-1.4,4.3-2.1,8.1-2.1c3.6,0,6.3,1.8,6.3,4.2c0,2.1-1.1,2.6-3.5,3
	c0,0-0.5,0.1-6.2,1.1c-6.2,1-8.9,3.7-9.1,9.2c0,0.2,0,0.4,0,0.6c0,2.5,0.9,4.7,2.5,6.4c2.1,2.2,5.2,3.4,8.7,3.4
	c2.3-0.1,5-0.4,7.7-2.1c0,0.5,0,1.8,0,1.8L515.7,246.9z M507.5,231.3c0,1.3,0,5.6,0,5.6c0,3.4-3.6,5.4-7.1,5.5
	c-1.7,0-3.4-0.6-4.4-1.8c-0.8-0.8-1.2-1.8-1.2-2.8l0-0.4c0.1-2.3,1.8-3.9,4.4-4.4c0,0,5.6-1,5.6-1
	C504.9,232,506.4,231.6,507.5,231.3z"/>
<path class="st0" d="M280.4,245.8l-1.6,2H290l-1.5-1.9c-0.4-0.5-0.5-0.7-0.6-1.1c-0.3-1.1-0.3-1.6-0.3-2.5V227
	c0-3.2-1.3-6.2-3.7-8.4c-2.5-2.4-6.1-3.7-9.7-3.6c-3.2,0.1-5.6,0.9-7.8,2.6c0-0.4,0-1.5,0-1.5h-0.7h-7.3l1,3l0-0.1
	c0,0.1,0.1,0.3,0.1,0.4l0.2,1.1v23.6c0,0.4-0.1,0.6-0.2,0.8c0,0.1-0.4,1-0.5,1l-0.6,0.9l-0.6,1h10.3l-1.5-3
	c-0.3-0.9-0.3-1.5-0.3-2.7v-14.9c0-3.9,2.8-6.8,6.7-6.9c2.3-0.1,4.7,0.8,6.2,2.2c1,1,1.6,2.2,1.6,3.6v16.1c0,0,0,0.9,0,0.9
	c0,0,0,1.6,0,1.6C281,245.1,280.8,245.3,280.4,245.8z"/>
<path class="st0" d="M401.7,214c-2.4-0.4-4.4-0.1-6.3,1c-0.8,0.5-1.5,1-2.1,1.5c0-0.2,0-1.2,0-1.2H384l1.3,1.6c0.5,0.6,0.8,1,1,1.7
	c0.3,0.6,0.3,1.1,0.3,1.8v21.1c0,0,0,0.5,0,0.5c0,0.8,0,1.4-0.2,2.1c-0.1,0.4-0.2,0.5-0.4,0.9c0,0.1-1.4,2.2-1.4,2.2l2.1,0h9.2
	l-1.1-1.8c-0.5-0.8-0.7-1.2-0.9-2c-0.3-1.1-0.4-1.6-0.4-2.7v-13.1c0-2.9,1.3-5.6,3.2-6.7c1.5-0.8,2.7-0.9,4.4-0.4l1.5,0.5v-6.6
	L401.7,214z"/>
<path class="st0" d="M470.9,202.5h-7.6v7.9h7.6V202.5z M463.7,245.2l-1.4,1.9h10.3l-1.2-2.1l-0.4-0.9c-0.1-0.4-0.1-0.6-0.1-1.3
	v-27.6h-9l1.4,1.4c0.3,0.3,0.5,0.6,0.7,1c0.1,0.3,0.2,0.6,0.2,1.1c0,0.1,0,0.6,0,0.6V243v0.5l-0.1,1.1
	C464.1,244.8,464,244.9,463.7,245.2z"/>
<path class="st0" d="M445.9,247.1l-1.5-2.2c-0.3-0.4-0.4-0.6-0.4-0.9c-0.3-2.4-0.3-3.8-0.3-6.4v-38.7h-9.2l1.6,1.9
	c0,0,0.4,0.5,0.4,0.6c0,0,0,0.1,0,0.1l0,0l0.2,0.9c0,0,0,10.5-0.1,14.2c-2.5-1.7-5-2.5-8.1-2.3c-9.1,0.3-14.5,6.3-14.7,16.4
	c-0.1,5.1,1.9,10.1,5.1,13.2c2.8,2.6,6.3,3.9,10.3,3.8c2.9-0.1,5.2-0.8,7.4-2.2c0,0.5,0,1.7,0,1.7S445.9,247.1,445.9,247.1z
	 M436.8,227.2v7c0,2.5-0.8,4.5-2.2,5.8c-1.4,1.3-3.3,1.9-5.6,1.8c-2.3-0.1-4.3-1.1-5.8-2.9c-2.1-2.4-3.1-5.9-2.7-9.3
	c0.5-4.3,2.4-9.5,8.5-9.8c2.2-0.1,4.2,0.6,5.6,2C436.1,223.2,436.8,225.1,436.8,227.2z"/>
<path class="st1" d="M221.4,179.7v6.1c0,3.5-2.4,4.8-5.3,4.8c-3.1,0-5.3-1.4-5.3-4.8v-6.1h2.7v6.2c0,1.5,1.1,2.5,2.6,2.5
	c1.4,0,2.7-0.8,2.7-2.6v-5.9L221.4,179.7L221.4,179.7z"/>
<path class="st1" d="M247.2,190.4H245l-5.9-6.9v6.9h-2.7v-10.7h2.4l5.7,6.5v-6.5h2.7V190.4z"/>
<path class="st1" d="M265,190.4h-2.7v-10.7h2.7V190.4z"/>
<path class="st1" d="M285.3,190.5h-1.2l-5.2-10.8h2.9l2.8,6.1l2.7-6.1h2.9L285.3,190.5z"/>
<path class="st1" d="M312.1,190.4h-7.9v-10.7h7.8v1.9h-5.1v2.2h4.9v1.9h-4.9v2.6h5.2L312.1,190.4L312.1,190.4z"/>
<path class="st1" d="M331.6,179.7c2.2,0,3.5,1.5,3.5,3.1c0,1.2-0.6,2.1-1.8,2.6c1.1,0.5,1.4,1.8,2.9,5h-2.9c-1.1-2.3-1.6-4.3-3-4.3
	h-0.8v4.3h-2.7v-10.7H331.6z M329.5,184.1h1.4c0.7,0,1.5-0.3,1.5-1.2c0-0.8-0.5-1.2-1.5-1.2h-1.4V184.1z"/>
<path class="st1" d="M357.3,182.5c-1.6-0.7-2.5-1-3.4-1c-1,0-1.6,0.3-1.6,0.9c0,1.6,5.4,1.2,5.4,4.9c0,2.1-1.7,3.2-4.1,3.2
	c-1.9,0-2.8-0.5-3.8-1v-2.3c1.5,1,2.5,1.4,3.6,1.4c1,0,1.6-0.4,1.6-1c0-1.8-5.4-1.1-5.4-5c0-1.8,1.6-3.1,4.1-3.1
	c1.2,0,2.3,0.3,3.6,0.8L357.3,182.5L357.3,182.5z"/>
<path class="st1" d="M375,190.4h-2.7v-10.7h2.7V190.4z"/>
<path class="st1" d="M399.8,181.7h-3.9v8.7h-2.7v-8.7h-3.9v-1.9h10.4L399.8,181.7L399.8,181.7z"/>
<path class="st1" d="M422,190.4h-7.9v-10.7h7.8v1.9h-5.1v2.2h4.9v1.9h-4.9v2.6h5.2L422,190.4L422,190.4z M417.8,178.7h-1.2l1.2-2.3
	h2.6L417.8,178.7z"/>
<path class="st2" d="M327.2,269.6v6.1c0,3.5-2.4,4.8-5.3,4.8c-3.1,0-5.3-1.4-5.3-4.8v-6.1h2.7v6.2c0,1.5,1.1,2.5,2.6,2.5
	c1.4,0,2.7-0.8,2.7-2.6v-5.9L327.2,269.6L327.2,269.6z"/>
<path class="st2" d="M353,280.3h-2.2l-5.9-6.9v6.9h-2.7v-10.7h2.4l5.7,6.5v-6.5h2.7L353,280.3L353,280.3z"/>
<path class="st2" d="M370.9,280.3h-2.7v-10.7h2.7V280.3z"/>
<path class="st2" d="M391.1,280.4H390l-5.2-10.8h2.9l2.8,6.1l2.7-6.1h2.9L391.1,280.4z"/>
<path class="st2" d="M417.9,280.3H410v-10.7h7.8v2h-5.1v2.3h4.9v1.9h-4.9v2.6h5.2L417.9,280.3L417.9,280.3z"/>
<path class="st2" d="M437.4,269.6c2.2,0,3.5,1.5,3.5,3.1c0,1.2-0.6,2.1-1.8,2.6c1.1,0.5,1.4,1.9,2.9,5h-2.9c-1.1-2.3-1.6-4.3-3-4.3
	h-0.8v4.3h-2.7v-10.7H437.4z M435.3,274h1.4c0.7,0,1.5-0.3,1.5-1.2c0-0.8-0.5-1.2-1.5-1.2h-1.4L435.3,274L435.3,274z"/>
<path class="st2" d="M463.1,272.4c-1.6-0.7-2.5-1-3.4-1c-1,0-1.6,0.3-1.6,0.9c0,1.6,5.4,1.2,5.4,4.9c0,2.1-1.7,3.2-4.1,3.2
	c-1.9,0-2.8-0.5-3.9-1v-2.3c1.5,1,2.5,1.4,3.7,1.4c1,0,1.6-0.4,1.6-1c0-1.7-5.4-1.1-5.4-4.9c0-1.8,1.6-3.1,4.1-3.1
	c1.2,0,2.3,0.3,3.6,0.8V272.4z"/>
<path class="st2" d="M480.8,280.3h-2.7v-10.7h2.7V280.3z"/>
<path class="st2" d="M505.6,271.6h-3.9v8.7h-2.7v-8.7h-3.9v-2h10.4L505.6,271.6L505.6,271.6z"/>
<path class="st2" d="M523,275.3l-4.2-5.7h3.2l2.3,3.4l2.3-3.4h3.2l-4.2,5.7v5H523V275.3L523,275.3z"/>
<path class="st1" d="M69.5,190.1L81,209.4c-0.8-3.4-2.2-10.1-2.2-10.1c1.6,1.2,18.8,7.2,22.4,8.3l0,0c-2.3-3.8-6-7.3-9.4-10.9
	c2.4,2.5,6.8,5,10.3,7.1c1.3,0.8,2.6,1.6,4.1,2.4c-0.2-4-2.1-8-3.5-11.8c1.1,2.9,4.3,6.1,6.7,8.8c0.7,0.8,1.4,1.5,2.2,2.3
	c1.9-3.8,2.6-8,2.7-11.9c-0.1,3.6,0.7,8.1,2.7,11.8c1-0.9,1.8-1.9,2.7-2.9c2.2-2.6,5.1-5.5,6.2-8.3c-1.5,3.9-3.2,7.9-3.5,11.9
	c5.6-2.8,10-6.5,14.3-9.6c-3.5,2.5-5.8,6-8.1,8.9c-0.5,0.6-1,1.3-1.4,2l0.1,0c3.5-1.1,20.5-6.2,20.5-6.2l-27,13.2l26.9-12.7
	l-1.5,7.9l0.4,1l12.5-20.7H69.5z"/>
<path class="st0" d="M113.6,171.6c-26.3-1.9-41,2.8-43.7,3.3v7.4c7.7-1.7,21.3-4.1,40.7-4.7l0,0h0.1h0c26.6-0.5,42.9,2.6,47.5,3.7
	c0-0.1,0,0.1,0,0C158,181.3,142.7,174.1,113.6,171.6z"/>
<path class="st0" d="M147.9,243.9c-11.3,13.7-26.9,23.6-33.3,26.4l0,0l0,0l0,0c-9.6-4.4-32.5-20.2-42.9-50.8
	c-0.2-0.9-0.5-1.7-0.7-2.6c0.2,1.1,0.3,2.3,0.5,3.4v-0.1c0.4,1.9,0.8,3.9,1.2,5.8c9.6,32.8,33,49.8,41.8,54.5
	C121.3,276.9,136.7,263.7,147.9,243.9z"/>
<path class="st2" d="M80.4,201.4l4.9,29.2c0,0,11.6,17.4,28.1,26.7l0-38.7L80.4,201.4z"/>
<path class="st2" d="M115.9,217.5v39.8c0.3-0.2,0.7-0.4,1-0.6c0.3-0.2,0.6-0.3,0.9-0.5v-39.1L115.9,217.5z"/>
<path class="st0" d="M149.7,199.9c0,0-27.1,14.1-35.3,14.8c-9.2-0.9-34-13.3-34-13.3c16,13.4,33.6,17.5,34.3,17.7v0
	c0,0,13.2-2.6,31.4-15.6c-0.2,2.8-1,11.2-2.5,20.6L149.7,199.9C149.8,199.8,149.6,200,149.7,199.9z"/>
</svg>
